<?xml version="1.0" encoding="utf-8"?>
<!-- Generator: Adobe Illustrator 19.0.0, SVG Export Plug-In . SVG Version: 6.00 Build 0)  -->
<svg version="1.1" id="圖層_1" xmlns="http://www.w3.org/2000/svg" xmlns:xlink="http://www.w3.org/1999/xlink" x="0px" y="0px"
	 viewBox="-49 141 512 512" style="enable-background:new -49 141 512 512;" xml:space="preserve">
<style type="text/css">
	.st0{fill:#1794CE;}
</style>
<g>
	<path class="st0" d="M380.2,223.8C334,177.5,272.4,152,207,152S80,177.5,33.8,223.8S-38,331.6-38,397s25.5,127,71.8,173.2
		S141.6,642,207,642s127-25.5,173.2-71.8S452,462.4,452,397S426.5,270,380.2,223.8z M429.8,386h-95c-0.9-37.8-6.2-74.2-15.5-106.5
		c18.1-9.3,35-21,50.5-34.8C404.8,282.1,427.1,331.5,429.8,386z M218,408h94.9c-0.8,34.8-5.6,68.1-13.9,97.9
		c-25.6-10.3-52.9-16.3-81-17.6V408z M354,229.4c-12.8,11.3-26.8,20.9-41.6,28.9c-3.8-10.6-8.1-20.6-12.9-30
		c-9.5-18.8-20.3-34.2-32.2-46C299.8,191.4,329.3,207.7,354,229.4z M218,177.4c22.9,5.1,44.5,26.2,61.9,60.6
		c4.7,9.3,8.9,19.2,12.6,29.7c-23.5,9.7-48.6,15.4-74.5,16.7V177.4z M299.1,288.8c8.2,29.6,12.9,62.7,13.7,97.3H218v-79.6
		C246.2,305.2,273.5,299.1,299.1,288.8L299.1,288.8z M196,386h-94.9c0.8-34.6,5.5-67.7,13.7-97.3c25.6,10.4,53,16.4,81.1,17.6V386
		H196z M196.1,177.4v107c-25.9-1.3-51.1-7-74.5-16.7c3.7-10.5,7.9-20.4,12.6-29.7C151.6,203.6,173.2,182.5,196.1,177.4z
		 M146.8,182.3c-11.9,11.8-22.7,27.3-32.2,46c-4.7,9.4-9,19.4-12.9,30c-14.8-8-28.7-17.6-41.6-28.9
		C84.8,207.7,114.3,191.4,146.8,182.3L146.8,182.3z M44.3,244.7c15.5,13.8,32.4,25.4,50.5,34.8c-9.3,32.4-14.7,68.7-15.5,106.5h-95
		C-13,331.5,9.3,282.1,44.3,244.7z M-15.7,408h95c0.9,38.1,6.3,74.6,15.7,107.1c-18,9.3-34.9,20.8-50.3,34.6
		C9.4,512.2-13,462.7-15.7,408z M60.5,565c12.8-11.2,26.7-20.8,41.4-28.7c3.8,10.3,8,20.2,12.7,29.4c9.5,18.8,20.3,34.2,32.2,46.1
		C114.5,602.7,85.1,586.5,60.5,565L60.5,565z M196.1,616.6c-22.9-5.1-44.5-26.2-61.9-60.6c-4.6-9.1-8.7-18.8-12.4-29.1
		c23.4-9.7,48.5-15.4,74.3-16.6L196.1,616.6L196.1,616.6z M115.1,505.9c-8.3-29.8-13.1-63.1-13.9-97.9h94.9v80.3
		C168,489.5,140.7,495.5,115.1,505.9L115.1,505.9z M218.1,616.6V510.3c25.8,1.3,50.9,6.9,74.3,16.6c-3.7,10.3-7.8,20-12.4,29.1
		C262.6,590.4,241,611.5,218.1,616.6L218.1,616.6z M267.4,611.7c11.9-11.8,22.7-27.3,32.2-46.1c4.7-9.2,8.9-19.1,12.7-29.4
		c14.7,7.9,28.6,17.5,41.4,28.7C329.1,586.5,299.7,602.7,267.4,611.7L267.4,611.7z M369.6,549.7c-15.4-13.7-32.3-25.3-50.3-34.6
		c9.4-32.5,14.8-69.1,15.7-107.1h95C427.2,462.7,404.8,512.2,369.6,549.7L369.6,549.7z"/>
</g>
</svg>
