<?xml version="1.0" encoding="utf-8"?>
<!-- Generator: Adobe Illustrator 19.0.0, SVG Export Plug-In . SVG Version: 6.00 Build 0)  -->
<svg version="1.1" id="Capa_1" xmlns="http://www.w3.org/2000/svg" xmlns:xlink="http://www.w3.org/1999/xlink" x="0px" y="0px"
	 viewBox="-298 389 15 15" style="enable-background:new -298 389 15 15;" xml:space="preserve">
<style type="text/css">
	.st0{fill:#1794CE;}
</style>
<g>
	<path class="st0" d="M-283,396c-0.2-3.7-3.2-6.7-7-7v0h-0.5h-0.5v0c-3.7,0.2-6.7,3.2-7,7h0v0.5v0.5h0c0.2,3.7,3.2,6.7,7,7v0h0.5
		h0.5v0c3.7-0.2,6.7-3.2,7-7h0v-0.5L-283,396L-283,396z M-293.3,390.6c-0.5,0.6-0.9,1.4-1.2,2.4h-1.5
		C-295.3,392-294.4,391.2-293.3,390.6z M-296.5,394h1.8c-0.1,0.6-0.2,1.3-0.2,2h-2C-296.9,395.3-296.8,394.6-296.5,394z M-297,397h2
		c0,0.7,0.1,1.4,0.2,2h-1.8C-296.8,398.4-296.9,397.7-297,397z M-296,400h1.5c0.3,0.9,0.7,1.7,1.2,2.4
		C-294.4,401.8-295.3,401-296,400z M-291,402.9c-1-0.3-1.9-1.4-2.5-2.9h2.5V402.9z M-291,399h-2.7c-0.1-0.6-0.2-1.3-0.3-2h3V399z
		 M-291,396h-3c0-0.7,0.1-1.4,0.3-2h2.7V396z M-291,393h-2.5c0.5-1.6,1.4-2.7,2.5-2.9V393z M-285,393h-1.5c-0.3-0.9-0.7-1.7-1.2-2.4
		C-286.6,391.2-285.7,392-285,393z M-290,390.1c1,0.3,1.9,1.4,2.5,2.9h-2.5V390.1z M-290,394h2.7c0.1,0.6,0.2,1.3,0.3,2h-3V394z
		 M-290,397h3c0,0.7-0.1,1.4-0.3,2h-2.7V397z M-290,402.9V400h2.5C-288.1,401.6-289,402.7-290,402.9z M-287.7,402.4
		c0.5-0.6,0.9-1.4,1.2-2.4h1.5C-285.7,401-286.6,401.8-287.7,402.4z M-284.5,399h-1.8c0.1-0.6,0.2-1.3,0.2-2h2
		C-284.1,397.7-284.2,398.4-284.5,399z M-286,396c0-0.7-0.1-1.4-0.2-2h1.8c0.3,0.6,0.4,1.3,0.5,2H-286z"/>
</g>
</svg>
