<?xml version="1.0" encoding="utf-8"?>
<!-- Generator: Adobe Illustrator 16.0.0, SVG Export Plug-In . SVG Version: 6.00 Build 0)  -->
<!DOCTYPE svg PUBLIC "-//W3C//DTD SVG 1.1//EN" "http://www.w3.org/Graphics/SVG/1.1/DTD/svg11.dtd">
<svg version="1.1" id="圖層_1" xmlns="http://www.w3.org/2000/svg" xmlns:xlink="http://www.w3.org/1999/xlink" x="0px" y="0px"
	 width="760px" height="136px" viewBox="0 0 760 136" enable-background="new 0 0 760 136" xml:space="preserve">
<g>
	<g>
		<path fill="#353535" stroke="#353535" stroke-width="10" stroke-miterlimit="10" d="M95.5,131.1V49.9l-28,59.2H53.9L25.2,49.9
			v81.2H6.8V9.7h18.4l35.5,75.5L95.5,9.7h18.4v121.4H95.5z"/>
		<path fill="#353535" stroke="#353535" stroke-width="10" stroke-miterlimit="10" d="M212.4,131.1l-25.6-51.2h-23v51.2h-18.4V9.7
			h47.1c23,0,37.7,14.8,37.7,35.5c0,17.4-10.6,28.5-24.2,32.2l28,53.7H212.4z M191.1,26.2h-27.3v38h27.3c12.3,0,20.6-7,20.6-18.9
			C211.8,33.4,203.4,26.2,191.1,26.2z"/>
		<path fill="#353535" stroke="#353535" stroke-width="10" stroke-miterlimit="10" d="M298.2,26.2v104.9h-18.4V26.2h-33.4V9.7h85.3
			v16.5H298.2z"/>
	</g>
</g>
<g>
	<g>
		<path fill="#353535" stroke="#353535" stroke-width="10" stroke-miterlimit="10" d="M575.7,130.9l-26.4-46.5L523,130.9h-21.1
			l37.5-62.2L504.2,9.5h21.1L549.2,53l24-43.5h21.1l-35.1,59.2l37.7,62.2H575.7z"/>
		<path fill="#353535" stroke="#353535" stroke-width="10" stroke-miterlimit="10" d="M626.8,130.9V9.5h18.4v121.4H626.8z"/>
		<path fill="#353535" stroke="#353535" stroke-width="10" stroke-miterlimit="10" d="M722.5,26v104.9h-18.4V26h-33.4V9.5h85.3V26
			H722.5z"/>
	</g>
</g>
<g>
	<path fill="#353535" stroke="#353535" stroke-width="10" stroke-miterlimit="10" d="M468.3,4.5h-81v126.8h81v-17.3h-61.8V95.1
		c-0.2-0.5-0.3-1.1-0.3-1.7V32.8c0-0.6,0.1-1.2,0.3-1.7v-9.3h61.8V4.5z"/>
</g>
<polygon fill="#1794CE" stroke="#1794CE" stroke-width="7" stroke-miterlimit="10" points="463.9,36.6 494.3,67.1 463.9,97.6 
	443.7,97.6 466.9,74.4 421.4,74.5 421.4,59.7 466.8,59.7 443.7,36.6 "/>
<rect id="_x3C_切片_x3E_" x="1" y="-1" fill="none" width="761" height="137"/>
<rect x="401" y="20" fill="#353535" width="11" height="90"/>
</svg>
